<svg xmlns="http://www.w3.org/2000/svg" viewBox="0 0 18 18" width="21" height="21">
  <circle fill="#828686" stroke="#FFF" stroke-width=".5" stroke-miterlimit="10" cx="9" cy="9" r="8.75" />
  <path
    d="M13.1 7.5h-1.11l-.29-1.73a1.47 1.47 0 00-1.06-1.11 2.799 2.799 0 00-.81-.16H8.17a2.798 2.798 0 00-.8.14A1.47 1.47 0 006.3 5.77L6.01 7.5H4.84a.37.37 0 00-.34.49l1.21 4.7c.135.47.56.798 1.05.81h4.48a1.12 1.12 0 001.06-.81l1.2-4.7a.37.37 0 00-.4-.49zm-6.33 0l.27-1.61a.68.68 0 01.55-.52c.184-.06.376-.093.57-.1h1.67c.193.007.385.04.57.1a.68.68 0 01.55.52l.28 1.61z"
    fill="#fff" />
</svg>