<svg xmlns="http://www.w3.org/2000/svg" viewBox="0 0 18 18" width="21" height="21">
  <circle fill="#828686" stroke="#FFF" stroke-width=".5" stroke-miterlimit="10" cx="9" cy="9" r="8.75" />
  <path
    d="M14.55 7.25A1.75 1.75 0 0012.8 5.5a1.73 1.73 0 00-.8.2 1.24 1.24 0 00-1.24-1.2 1.19 1.19 0 00-.21.05A1.23 1.23 0 009.3 3.5a1.25 1.25 0 00-1.13.73 1.21 1.21 0 00-.62-.21 1.23 1.23 0 00-1 .55 1.491 1.491 0 00-.49-.07 1.51 1.51 0 00-1.4 2.08 1.49 1.49 0 00-.03 2.92 1.49 1.49 0 002.55.52h.12c.32 0 .629-.126.86-.35v3.83l-1.61 1h5l-1.6-1v-1a8.42 8.42 0 012.38-2c.258-.05.5-.166.7-.34A1.49 1.49 0 0013.55 9a1.46 1.46 0 000-.17c.61-.29.999-.904 1-1.58zm-4.64 4.5V9.5h.18a1.52 1.52 0 00.53-.1 1.5 1.5 0 00.89 1 8.821 8.821 0 00-1.6 1.35z"
    fill="#fff" />
</svg>