<svg xmlns="http://www.w3.org/2000/svg" viewBox="0 0 18 18" width="21" height="21">
  <circle fill="#828686" stroke="#FFF" stroke-width=".5" stroke-miterlimit="10" cx="9" cy="9" r="8.75" />
  <path
    d="M7.8 4.13c-.516.543.224 1.174.68.674l.495-.543 2.333 1.394-4.25 2.336c-.294.162-.342.44-.234.721l.888 2.317-.935 2.804c-.128.385.172.65.474.658a.468.468 0 00.475-.341l.92-2.764.853-.283.252.505v2.383s0 .5.5.5.5-.5.5-.5v-2.383a.84.84 0 00-.064-.362l-1.281-3.34 2.553-1.403c.186-.08.29-.254.29-.512 0-.226-.218-.413-.457-.555L8.656 3.562c-.16-.096-.275-.043-.323.007zM6.751 5.49a1 1 0 100 2 1 1 0 000-2z"
    fill="#fff" />
</svg>