<svg xmlns="http://www.w3.org/2000/svg" viewBox="0 0 18 18" width="21" height="21">
  <circle fill="#828686" stroke="#FFF" stroke-width=".5" stroke-miterlimit="10" cx="9" cy="9" r="8.75" />
  <path
    d="M10.5 6.955v2.5a1.5 1.5 0 001 1.41v2.09H11a.5.5 0 000 1h2a.5.5 0 000-1h-.5v-2.09a1.5 1.5 0 001-1.41v-2.5zm2.5 2.5a1 1 0 11-2 0v-2h2zm-5.29-3.65v-.35a.355.355 0 100-.71v-.35a.35.35 0 00-.36-.35h-.71a.35.35 0 00-.36.34v.36a.355.355 0 100 .71v.35c.01 1.02-1.78 2.15-1.78 3.15v4.25a.7.7 0 00.71.71h3.58a.79.79 0 00.71-.67v-4.29c0-.91-1.79-2.19-1.79-3.15zM7 11.955a1.5 1.5 0 110-3 1.5 1.5 0 010 3z"
    fill="#fff" />
</svg>