<svg xmlns="http://www.w3.org/2000/svg" viewBox="0 0 18 18" width="21" height="21">
  <circle fill="#828686" stroke="#FFF" stroke-width=".5" stroke-miterlimit="10" cx="9" cy="9" r="8.75" />
  <path
    d="M5.268 5.75a1.5 1.5 0 00-1.5 1.5v1c0 .5.5.5.5.5h1c1.5 0 2.5.5 2.5.5s-1 .5-2.5.5h-1s-.5 0-.5.5v1a1.5 1.5 0 003 0v-.615c.808-.158 1.586-.453 2.224-.742l3.276 1.857c1.5.75 2.5 0 2.5 0l-4.5-2.5 4.5-2.5s-1-.75-2.5 0L8.992 8.607c-.638-.289-1.416-.584-2.224-.742v-.611-.004a1.5 1.5 0 00-1.5-1.5zm0 1a.5.5 0 110 1 .5.5 0 010-1zM9 9h.018A.25.25 0 119 9zm-3.732 1.75a.5.5 0 110 1 .5.5 0 010-1z"
    fill="#fff" />
</svg>