<svg xmlns="http://www.w3.org/2000/svg" viewBox="0 0 18 18" width="21" height="21">
  <circle stroke-miterlimit="10" cx="9" cy="9" r="8.75" stroke-width=".5" stroke="#FFF" fill="#828686" />
  <path
    d="M10 5c-.676-.01-.676 1.01 0 1h.5v.711l-2.748 1.57L7.238 7h.715c.676.01.676-1.01 0-1H5.926c-.676-.01-.676 1.01 0 1h.234l.432 1.078A2.461 2.461 0 006 8a2.508 2.508 0 00-2.5 2.5C3.5 11.875 4.625 13 6 13s2.5-1.125 2.5-2.5c0-.471-.14-.908-.37-1.285l2.472-1.412.402.408a2.507 2.507 0 00-1.504 2.29c0 1.374 1.125 2.5 2.5 2.5s2.5-1.126 2.5-2.5c0-1.297-1.003-2.358-2.27-2.478l-.73-.73V5.5A.5.5 0 0011 5zM6 9c.834 0 1.5.666 1.5 1.5S6.834 12 6 12s-1.5-.666-1.5-1.5S5.166 9 6 9zm5.955.004h.002a.45.45 0 00.09 0A1.49 1.49 0 0113.5 10.5c0 .834-.666 1.5-1.5 1.5s-1.5-.666-1.5-1.5a1.49 1.49 0 011.455-1.496z"
    fill="#fff" />
</svg>