<svg xmlns="http://www.w3.org/2000/svg" viewBox="0 0 18 18" width="21" height="21">
  <circle fill="#828686" stroke="#FFF" stroke-width=".5" stroke-miterlimit="10" cx="9" cy="9" r="8.75" />
  <path
    d="M9.02 4.515c-2.3 0-3 .66-3 .66v2a6.6 6.6 0 00.66 2.65 4.13 4.13 0 010 3s0 .66 2.32.66 2.32-.66 2.32-.66a4.13 4.13 0 010-3 6.6 6.6 0 00.66-2.65v-2s-.66-.66-2.96-.66zm0 8.28a4.77 4.77 0 01-1.56-.18c.133-.479.2-.973.2-1.47h2.72c-.014.22-.014.44 0 .66.034.274.087.544.16.81a4.77 4.77 0 01-1.52.19zm2.32-6a8.24 8.24 0 01-4.63 0l-.01-1.28a8.28 8.28 0 014.64 0s.03 1.33 0 1.33z"
    fill="#fff" />
</svg>