<svg xmlns="http://www.w3.org/2000/svg" viewBox="0 0 18 18" width="21" height="21">
  <circle fill="#828686" stroke="#FFF" stroke-width=".5" stroke-miterlimit="10" cx="9" cy="9" r="8.75"/>
  <path d="M8.41 3.5v11h1.18v-11zm-2.946.786a1.179 1.179 0 100 2.357 1.179 1.179 0 000-2.357zm7.072 0a1.179 1.179 0 100 2.357 1.179 1.179 0 000-2.357zM4.679 7.429c-.472 0-.786.446-.786.785 0 .415.982 1.176.982 1.572 0 .437-1.375.785-1.375 2.357h1.375V14.5h1.179v-2.357h1.375c0-1.572-1.375-1.941-1.375-2.357 0-.416.982-1.139.982-1.572 0-.32-.334-.785-.786-.785zm6.678 0c-.414 0-.786.377-.786.785 0 .786 1.375 3.156 1.375 3.929V14.5h1.179v-2.357c0-.758 1.375-3.143 1.375-3.929a.786.786 0 00-.786-.785z" fill="#fff"/>
</svg>
