<svg xmlns="http://www.w3.org/2000/svg" viewBox="0 0 18 18" width="21" height="21">
  <circle fill="#828686" stroke="#FFF" stroke-width=".5" stroke-miterlimit="10" cx="9" cy="9" r="8.75" />
  <path
    d="M4 4.658v7c3.26 0 5.49 2 5.49 2s2.27-2 5.51-2v-7c-4 0-5.51 1.725-5.51 1.725S8 4.658 4 4.658zm1 1c1.195-.031 3.053.402 4 1.348l.5.652.5-.652c.961-.93 2.8-1.36 4-1.348v5c-2 0-3.354.857-4.51 1.781C8.35 11.511 7 10.66 5 10.66zm1 1.303v.181c.823.17 2.1.687 3 1.176V8.09c-.917-.478-2.176-.972-3-1.13zm7 0c-.824.157-2.083.65-3 1.129v.228c.9-.489 2.177-1.007 3-1.175zm-7 .92v.181c.822.154 2.098.659 3 1.133V9c-.917-.476-2.176-.967-3-1.12zm7 0c-.824.152-2.083.643-3 1.119v.195c.902-.474 2.178-.979 3-1.133zm-7 .894v.182c.822.155 2.098.659 3 1.133v-.196c-.918-.474-2.176-.965-3-1.119zm7 0c-.824.154-2.082.645-3 1.12v.195c.902-.474 2.178-.978 3-1.133zm-7 .883v.182c.82.14 2.097.63 3 1.088v-.15c-.918-.475-2.176-.966-3-1.12zm7 0c-.824.154-2.083.645-3 1.12v.15c.903-.459 2.18-.948 3-1.088z"
    fill="#fff" />
</svg>