<svg xmlns="http://www.w3.org/2000/svg" viewBox="0 0 18 18" width="21" height="21">
  <circle fill="#828686" stroke="#FFF" stroke-width=".5" stroke-miterlimit="10" cx="9" cy="9" r="8.75" />
  <path
    d="M4.908 8.425C3.275 5.158 7.421 2.978 9 6.244c1.58-3.266 5.725-1.086 4.092 2.18-.023.038-.048.074-.071.111h-1.146l-.828-1.654a.65.65 0 00-1.118 0L8.488 9.763l-.441-.882a.624.624 0 00-.559-.346H4.979c-.022-.037-.048-.073-.071-.11zm6.58 1.36a.624.624 0 01-.559-.345l-.441-.882-1.441 2.882a.624.624 0 01-1.118 0l-.828-1.655H5.79a24.227 24.227 0 002.897 3.45l.015.015a.44.44 0 00.622-.016 24.229 24.229 0 002.89-3.449z"
    fill="#fff" />
</svg>