<svg xmlns="http://www.w3.org/2000/svg" viewBox="0 0 18 18" width="21" height="21">
  <circle fill="#828686" stroke="#FFF" stroke-width=".5" stroke-miterlimit="10" cx="9" cy="9" r="8.75" />
  <path
    d="M6.5 12.836a.73.73 0 001 0l.74-.74a.73.73 0 000-1zm4.56-4.6a.73.73 0 001 0l.71-.71a.73.73 0 000-1zm-1.68-1.23l-2.31 2.31a.37.37 0 000 .52l.43.44-1.74 1.76a2.27 2.27 0 01-.73-1.34v-1a1.345 1.345 0 01.52-1l3.21-3.21a1.345 1.345 0 011-.52h1a2.27 2.27 0 011.34.73l-1.76 1.74-.44-.43a.37.37 0 00-.52 0"
    fill="#fff" />
</svg>