<svg xmlns="http://www.w3.org/2000/svg" viewBox="0 0 18 18" width="21" height="21">
  <circle fill="#828686" stroke="#FFF" stroke-width=".5" stroke-miterlimit="10" cx="9" cy="9" r="8.75"/>
  <g fill="#fff" fill-rule="evenodd">
    <path d="M8.055 11.84S7.018 10.627 5.94 8.863c-.855-1.4-1.645-3.244-1.718-3.44C4.807 5 7.785 3.661 8.388 3.53c.176.677.45 2.003 1.031 3.29.6 1.331 1.323 2.369 1.591 2.72-.643.605-2.955 2.3-2.955 2.3zm2.029-.742c.074.62 2.168 3.504 2.876 4.027.273.202.464.037.928-.29.464-.328.639-.607.47-1-.347-.81-1.866-3.716-2.578-4.181-.686-.997-1.26-1.75-1.826-3.132-.585-1.43-.958-2.882-1.182-3.735-.796.23-2.114.788-2.925 1.162-.904.416-1.55.822-2.268 1.206.227.66.77 2.283 1.904 4.038.896 1.386 1.65 2.49 2.5 3.329zM6.935 5.33c0-.321.275-.581.615-.581.339 0 .614.26.614.58 0 .322-.275.582-.614.582-.34 0-.615-.26-.615-.581z"/>
    <path d="M8.055 11.84S7.018 10.627 5.94 8.863c-.855-1.4-1.645-3.244-1.718-3.44C4.807 5 7.785 3.661 8.388 3.53c.176.677.45 2.003 1.031 3.29.6 1.331 1.323 2.369 1.591 2.72-.643.605-2.955 2.3-2.955 2.3zm2.029-.742c.074.62 2.168 3.504 2.876 4.027.273.202.464.037.928-.29.464-.328.639-.607.47-1-.347-.81-1.866-3.716-2.578-4.181-.686-.997-1.26-1.75-1.826-3.132-.585-1.43-.958-2.882-1.182-3.735-.796.23-2.114.788-2.925 1.162-.904.416-1.55.822-2.268 1.206.227.66.77 2.283 1.904 4.038.896 1.386 1.65 2.49 2.5 3.329zM6.935 5.33c0-.321.275-.581.615-.581.339 0 .614.26.614.58 0 .322-.275.582-.614.582-.34 0-.615-.26-.615-.581z"/>
  </g>
</svg>
