<svg xmlns="http://www.w3.org/2000/svg" viewBox="0 0 18 18" width="21" height="21">
  <circle fill="#828686" stroke="#FFF" stroke-width=".5" stroke-miterlimit="10" cx="9" cy="9" r="8.75" />
  <path
    d="M12.566 6.374a.746.746 0 00-.746-.746.746.746 0 10-1.492 0v1.747a2.489 2.489 0 00-3.491 3.486H5.074a.746.746 0 000 1.492.746.746 0 00.746.747.746.746 0 001.492 0v-1.76a2.489 2.489 0 003.506-3.473h1.748a.746.746 0 000-1.493zm-3.74 4.772a1.782 1.782 0 01-.72-3.414.816.816 0 01.243.177 1.648 1.648 0 01.301 1.076v.738a1.972 1.972 0 00.388 1.32 1.155 1.155 0 00.096.07 1.776 1.776 0 01-.309.033zm.72-.155a.816.816 0 01-.245-.178A1.648 1.648 0 019 9.737V9a1.972 1.972 0 00-.388-1.321 1.155 1.155 0 00-.095-.07 1.78 1.78 0 011.028 3.382z"
    fill="#fff" />
</svg>