<svg xmlns="http://www.w3.org/2000/svg" viewBox="0 0 18 18" width="21" height="21">
  <circle fill="#828686" stroke="#FFF" stroke-width=".5" stroke-miterlimit="10" cx="9" cy="9" r="8.75" />
  <path
    d="M4.106 4.105c-.303 0-.606.303-.606.606v3.734c0 1.413.578 2.961 3 2.961H7V9.59l-2.29-.008s.303-1.137 1.817-1.137c.303 0 .404.001.606.102V7.133c0-.606.202-1.008.605-1.31.303-.303.551-.417 1.157-.417H9.5v-.605c0-.303-.197-.658-.5-.658-.606 0-1.16.568-2.473.568-1.009 0-1.816-.606-2.421-.606zM5.25 5.906a.75.75 0 110 1.5.75.75 0 010-1.5zm3.75.5c-.303 0-.555.424-.555.727v3.734c0 1.413.606 3.028 3.028 3.028s3.027-1.716 3.027-3.028V7.133c0-.303-.197-.727-.5-.727-.606 0-1.592.5-2.5.5-.908 0-1.895-.5-2.5-.5zm1.25 2a.75.75 0 110 1.5.75.75 0 010-1.5zm2.5 0a.75.75 0 110 1.5.75.75 0 010-1.5zm-3.094 3.067h3.735s-.303 1.21-1.817 1.21-1.918-1.21-1.918-1.21z"
    fill="#fff" />
</svg>