<svg xmlns="http://www.w3.org/2000/svg" viewBox="0 0 18 18" width="21" height="21">
  <circle fill="#828686" stroke="#FFF" stroke-width=".5" stroke-miterlimit="10" cx="9" cy="9" r="8.75" />
  <path
    d="M6.5 3.5c-1 0-2 .531-2 2V13s0 .5.5.5l.5.016V14s0 .5.5.5h.5s.5 0 .5-.5v-.484l4-.016v.5s0 .5.5.5h.5c.5 0 .5-.5.5-.5v-.484l.5-.016s.5 0 .5-.5V5.5c0-1.5-1-2-2-2zm.75 1h3.5a.25.25 0 110 .5h-3.5a.25.25 0 110-.5zm-.75 1h5c1 0 1 1 1 1v2s0 1-1 1h-5c-1 0-1-1-1-1v-2s0-1 1-1zM6.25 11a.75.75 0 110 1.5.75.75 0 010-1.5zm5.5 0a.75.75 0 110 1.5.75.75 0 010-1.5z"
    fill="#fff" />
</svg>