<svg xmlns="http://www.w3.org/2000/svg" viewBox="0 0 18 18" width="21" height="21">
  <circle fill="#828686" stroke="#FFF" stroke-width=".5" stroke-miterlimit="10" cx="9" cy="9" r="8.75" />
  <path
    d="M11.504 4.247l-.7.502-2.7 1.602c-.3.099-.4.598-.202.898l.6 1.002-2.5 2 1 1.002 2-1.002 2.002 1.002 1-1.002-3.002-3.502 3.002-1.5V4.247h-.5zm1.002 2.502a1 1 0 10-.003 2.003 1 1 0 00.003-2.003zM5.5 11.751l-2 1.002v1l2-1 1.5 1 2-1 2 1 1.5-1 2 1v-1l-2-1.002-1.5 1.002-2-1.002-2 1.002z"
    fill="#fff" />
</svg>