<?xml version="1.0" encoding="UTF-8"?>
<svg version="1.1" viewBox="0 0 21 21" xmlns="http://www.w3.org/2000/svg"><g transform="scale(1.1667)"><circle cx="9" cy="9" r="8.75" fill="#828686" stroke="#fff" stroke-miterlimit="10" stroke-width=".5"/></g><g transform="matrix(.47322 0 0 .54637 2.9285 1.7581)" fill="#fff"><path d="m29 14a1 1 0 0 0 1-1v-5a2 2 0 0 0-2-2h-24a2 2 0 0 0-2 2v5a1 1 0 0 0 1 1 2 2 0 0 1 0 4 1 1 0 0 0-1 1v5a2 2 0 0 0 2 2h24a2 2 0 0 0 2-2v-5a1 1 0 0 0-1-1 2 2 0 0 1 0-4zm-1 5.87v4.13h-7v-3h-2v3h-15v-4.13a4 4 0 0 0 0-7.74v-4.13h15v3h2v-3h7v4.13a4 4 0 0 0 0 7.74z"/><path d="m19 13h2v6h-2z"/></g></svg>
