<svg xmlns="http://www.w3.org/2000/svg" viewBox="0 0 18 18" width="21" height="21">
  <circle fill="#828686" stroke="#FFF" stroke-width=".5" stroke-miterlimit="10" cx="9" cy="9" r="8.75" />
  <path
    d="M12.998 4.75c-.003 0-.317-.006-.63.188-.316.194-.62.613-.62 1.312h-7.5l.75 3.5c.107.5.75.5.75.5h6s-.002.247-.152.496c-.15.25-.417.504-1.098.504h-5.25c-.338-.005-.338.505 0 .5h5.25c.82 0 1.302-.37 1.528-.746.225-.376.222-.754.222-.754v-4c0-.567.196-.772.381-.887.185-.114.365-.113.365-.113h.504c.338.005.338-.505 0-.5h-.496zm-2.5 7a.75.75 0 100 1.5.75.75 0 000-1.5zm-4 0a.75.75 0 100 1.5.75.75 0 000-1.5z"
    fill="#fff" />
</svg>