<svg xmlns="http://www.w3.org/2000/svg" viewBox="0 0 18 18" width="21" height="21">
  <circle stroke-miterlimit="10" cx="9" cy="9" r="8.75" stroke-width=".5" stroke="#FFF" fill="#828686" />
  <path
    d="M12.081 10.747a2.605 2.605 0 01-1.145.642L6.603 7.056a2.604 2.604 0 01.642-1.145c1.562-1.552 3.573-1.958 5.19-.343 1.604 1.605 1.208 3.627-.354 5.179zm-5.593-1.98a2.6 2.6 0 01-.013 1.156 2.732 2.732 0 01-.364.77c-.738.867-1.573 1.338-1.573 1.648a2.386 2.386 0 001.124 1.123c.31 0 .77-.802 1.658-1.562a2.518 2.518 0 01.802-.396 2.674 2.674 0 011.092.008z"
    fill="#fff" />
</svg>