<svg xmlns="http://www.w3.org/2000/svg" viewBox="0 0 18 18" width="21" height="21">
  <circle fill="#828686" stroke="#FFF" stroke-width=".5" stroke-miterlimit="10" cx="9" cy="9" r="8.75" />
  <path
    d="M8.5 4v3.012c-2.208.097-3.912.806-4 1.67v3.681C4.5 13.267 6.514 14 9 14s4.5-.733 4.5-1.637V8.682c-.088-.864-1.79-1.574-4-1.67v-.44L12 5.5zM5.318 9.752c.319.178.72.332 1.182.453v2.46c-.75-.237-1.179-.568-1.182-.915zm7.364.004v1.994c-.002.348-.43.68-1.182.916v-2.463c.461-.12.862-.271 1.182-.447zm-5.182.642a11.066 11.066 0 003 0v2.493c-.472.071-.983.109-1.5.109s-1.028-.038-1.5-.11z"
    fill="#fff" />
</svg>