<svg xmlns="http://www.w3.org/2000/svg" viewBox="0 0 18 18" width="21" height="21">
  <circle fill="#828686" stroke="#FFF" stroke-width=".5" stroke-miterlimit="10" cx="9" cy="9" r="8.75"/>
  <path d="M9.82 3.23c-.505.504-.913 1.228-1.04 1.86-.07.347-.1 1.167-.11 1.568.183.108.366.192.55.33.195-.146.384-.245.578-.357.015-.348.033-1.076.082-1.32.093-.467.334-.937.71-1.312zm-6.32.54c.472 1.76 2.511 2.64 4.4 1.76-.795-1.76-2.2-2.32-4.4-1.76zm1.32 3.74c-.54.568-.88 1.54-.88 2.42 0 1.76 1.76 4.84 3.52 4.84.496 0 .88-.22 1.76-.66.88.44 1.264.66 1.76.66 1.76 0 3.52-3.08 3.52-4.84 0-.88-.287-1.852-.88-2.42-.9-.86-2.64-.88-4.4.44-1.76-1.243-3.52-1.412-4.4-.44z" fill="#fff"/>
</svg>
