<svg xmlns="http://www.w3.org/2000/svg" viewBox="0 0 18 18" width="21" height="21">
  <circle fill="#828686" stroke="#FFF" stroke-width=".5" stroke-miterlimit="10" cx="9" cy="9" r="8.75" />
  <path
    d="M4.5 5.5c-1 0-1 1-1 1v5c0 1 1 1 1 1h9c1 0 1-1 1-1v-5s0-1-1-1zm0 1H6A.5.5 0 115.5 7L5 7.5a.501.501 0 11-.5.5zm4.5 0c1.104 0 2 1.118 2 2.5 0 1.38-.896 2.5-2 2.5-1.105 0-2-1.12-2-2.5 0-1.382.895-2.5 2-2.5zm3 0h1.5V8a.5.5 0 11-.5-.5l-.5-.5a.5.5 0 11-.5-.5zM8.401 7.75A1.153 1.153 0 008.2 8h1.598a1.16 1.16 0 00-.202-.25zm-.317.5a1.5 1.5 0 00-.064.25h1.96a1.493 1.493 0 00-.066-.25zM8 8.75c0 .084.007.167.02.25h1.959c.013-.083.02-.166.021-.25zm.085.5c.031.089.07.172.117.25h1.596c.046-.078.085-.161.115-.25zM5 9.5a.5.5 0 110 1l.5.5a.5.5 0 11.5.5H4.5V10c0-.276.224-.5.5-.5zm8 0a.5.5 0 01.5.5v1.5H12a.5.5 0 11.5-.5l.5-.5a.5.5 0 110-1zm-4.598.25l.033.031-.435.22h2l-.435-.22.032-.032zm-.32.5c.029.079.055.158.109.25h1.627c.052-.092.078-.171.105-.25zm.311.5c.147.142.34.25.606.25.274 0 .47-.108.618-.25z"
    fill="#fff" />
</svg>