<svg xmlns="http://www.w3.org/2000/svg" viewBox="0 0 18 18" width="21" height="21">
  <circle fill="#828686" stroke="#FFF" stroke-width=".5" stroke-miterlimit="10" cx="9" cy="9" r="8.75" />
  <path
    d="M9 3.5A2.5 2.5 0 006.5 6a2.493 2.493 0 001.75 2.371v4.545c-.659-.115-1.338-.375-1.893-.857C5.59 11.39 5 10.329 5 8.5a.75.75 0 10-1.5 0c0 2.17.773 3.735 1.873 4.691 1.1.957 2.46 1.309 3.627 1.309 1.167 0 2.527-.352 3.627-1.309 1.1-.956 1.873-2.52 1.873-4.691.014-1.014-1.514-1.014-1.5 0 0 1.83-.589 2.89-1.357 3.559-.555.482-1.234.742-1.893.857V8.375A2.494 2.494 0 009 3.5zM9 5a1 1 0 110 2 1 1 0 010-2z"
    fill="#fff" />
</svg>