<svg xmlns="http://www.w3.org/2000/svg" viewBox="0 0 18 18" width="21" height="21">
  <circle fill="#828686" stroke="#FFF" stroke-width=".5" stroke-miterlimit="10" cx="9" cy="9" r="8.75" />
  <path
    d="M13.25 9.373a1.48 1.48 0 10-1.85 1.43v.42a1.855 1.855 0 11-3.71 0 3.27 3.27 0 011.11-2.32h-.05a2.58 2.58 0 001.17-2.12v-1.49a1.11 1.11 0 00-1.11-1.11h-.56a.37.37 0 000 .74h.55a.37.37 0 01.37.37v1.49a1.85 1.85 0 01-1.84 1.85v.27-.27a1.85 1.85 0 01-1.86-1.84v-1.5a.37.37 0 01.37-.37h.52a.37.37 0 000-.74h-.52a1.11 1.11 0 00-1.09 1.11v1.49a2.58 2.58 0 001.1 2.12 3.27 3.27 0 011.1 2.32 2.595 2.595 0 105.19 0v-.42a1.48 1.48 0 001.11-1.43zm-1.5.74a.74.74 0 11.74-.74.74.74 0 01-.74.74z"
    fill="#fff" />
</svg>