<svg xmlns="http://www.w3.org/2000/svg" viewBox="0 0 18 18" width="21" height="21">
  <circle fill="#828686" stroke="#FFF" stroke-width=".5" stroke-miterlimit="10" cx="9" cy="9" r="8.75" />
  <path
    d="M13.5 9.5v2a.5.5 0 01-1 0 .66.66 0 00-.51-.5h-.49v1.63a.37.37 0 01-.37.37H4.87a.37.37 0 01-.37-.37V9.37A.37.37 0 014.87 9h6.26a.37.37 0 01.37.37V10h.49a.66.66 0 00.51-.5.5.5 0 011 0zM6 6a1.5 1.5 0 100 3 1.5 1.5 0 000-3zm0 2a.5.5 0 110-1 .5.5 0 010 1zm3.5-3a2 2 0 100 4 2 2 0 000-4zm0 3a1 1 0 110-2 1 1 0 010 2z"
    fill="#fff" />
</svg>