<svg xmlns="http://www.w3.org/2000/svg" viewBox="0 0 18 18" width="21" height="21">
  <circle fill="#828686" stroke="#FFF" stroke-width=".5" stroke-miterlimit="10" cx="9" cy="9" r="8.75"/>
  <path d="M3.5 9c-.01-.835 1.335-2.505 3.005-2.505.835.027 1.67 1.325 2.505 1.285.835.098 1.67-1.29 2.505-1.285 1.67 0 2.982 1.67 2.985 2.505h-.871c-.444-.835-1.279-1.263-2.114-1.298C10.68 7.791 9.845 9.005 9.01 9c-.835.022-1.67-1.162-2.505-1.22-.835-.022-1.67.385-2.021 1.22zm7.18-4.175a1.67 1.67 0 11-.05-.407M5.67 14.01L4 9.835c.601.12 1.158.75 1.67.835.338.057 1.36-.865 1.67-.835.781.075 1.066.766 1.67.835.633.073.893-.674 1.67-.835.375-.078 1.151.79 1.67.835.642.055 1.046-.71 1.67-.835l-1.67 4.175c-.835.835-1.67.835-3.34.835s-2.505 0-3.34-.835z" fill="#fff"/>
</svg>
