<svg width="21.001" height="21.001" version="1.1" viewBox="0 0 10.427 10.427" xml:space="preserve" xmlns="http://www.w3.org/2000/svg">
<g transform="scale(.49651)"><g transform="scale(1.1667)"><circle cx="9" cy="9" r="8.75" fill="#828686" stroke="#fff" stroke-miterlimit="10" stroke-width=".5"/></g></g>
<path d="m7.2566 2.6656c-0.23244-0.1687-0.56008-0.25424-0.97383-0.25424h-1.3251v-0.28784h-0.54455v0.23938l-1.6385-0.21347v1.0684l1.6385-0.21347v0.31607c-0.54922 0.1235-0.9617 0.61203-0.96812 1.1965h-3.517e-4v3.7865h2.4815v-3.7865h-3.434e-4c-0.0066993-0.58451-0.41888-1.073-0.96813-1.1965v-0.36453h1.3251c0.82494 0 0.82494 0.39033 0.82494 0.53726 0 0.32052-0.099066 0.46993-0.24902 0.69611-0.21099 0.31825-0.47357 0.71431-0.47357 1.6476v1.4729h0.54455v-1.4729c0-0.76912 0.19466-1.0627 0.38288-1.3467 0.16701-0.25191 0.33971-0.51239 0.33971-0.99701 0-0.35352-0.13682-0.63971-0.39565-0.82757z" fill="#fff" stroke-width=".015559"/></svg>
