<svg xmlns="http://www.w3.org/2000/svg" viewBox="0 0 18 18" width="21" height="21">
  <circle fill="#828686" stroke="#FFF" stroke-width=".5" stroke-miterlimit="10" cx="9" cy="9" r="8.75"/>
  <path d="M8.856 4.67a1.033.813 0 00-1.032.813 1.033.813 0 00.72.775c-1.182.095-2.201.702-2.8 1.599-.012-.006-.023-.017-.035-.022-.556-.226-1.39-.34-1.93.01-.526.34-.747.95-.777 1.71-.06 1.546 1.097 1.856 2.252 2.011.093.013.186.006.278.002.253.732.632 1.42 1.12 1.763h4.41c.526-.37.923-1.14 1.174-1.934.2.04.418.002.718-.238.522-.415 1.068-1.24 1.246-1.642.32-.695.8-3.192.8-3.192s-.755.205-1.358-.003c-.132.451-.297 1.305-.547 1.712-.215.351-.36.656-.715.712-.412-1.359-1.672-2.364-3.212-2.488a1.033.813 0 00.721-.775 1.033.813 0 00-1.033-.814zm-4.16 3.642c.277-.009.508.08.715.198a3.266 3.266 0 00-.236 1.187c0 .335.057.747.156 1.175-.664-.012-1.445-.096-1.4-1.254.026-.646.2-1.207.521-1.276.085-.018.166-.027.244-.03z" fill="#fff"/>
</svg>
