<svg xmlns="http://www.w3.org/2000/svg" viewBox="0 0 18 18" width="21" height="21">
  <circle stroke-miterlimit="10" cx="9" cy="9" r="8.75" stroke-width=".5" stroke="#FFF" fill="#828686" />
  <path
    d="M11.981 4.695a1.25 1.25 0 11-2.5-.001 1.25 1.25 0 012.5.001zm0 7.23a1 1 0 100 2 1 1 0 000-2zm1.81-3.39l-1.87-1.91a.48.48 0 00-.38-.18h-7.05a.5.5 0 000 1h3.49l-2.93 4.3a.488.488 0 000 .2.511.511 0 001 .21h-.07l1.16-1.71h1.84l-1.93 3.24a.49.49 0 00-.07.26.51.51 0 001 .2l3.67-6.38 1.48 1.48a.5.5 0 10.7-.71z"
    fill="#fff" />
</svg>