<svg xmlns="http://www.w3.org/2000/svg" viewBox="0 0 18 18" width="21" height="21">
  <circle fill="#828686" stroke="#FFF" stroke-width=".5" stroke-miterlimit="10" cx="9" cy="9" r="8.75" />
  <path
    d="M12.14 4.614v1.48a.69.69 0 01-.67.71H6.56a.69.69 0 01-.7-.7v-1.49a.345.345 0 01.69 0v.69h.92v-.5a.5.5 0 011 0v.5h1v-.5a.5.5 0 011 0v.5h1v-.69a.34.34 0 11.67 0zm1.39 8.82a.35.35 0 01-.35.35H4.82a.35.35 0 010-.7h.35a.68.68 0 00.7-.7s.7-3.2.7-3.89a.68.68 0 01.69-.69h3.48a.68.68 0 01.7.7c0 .7.7 3.89.7 3.89a.68.68 0 00.7.7h.34a.35.35 0 01.35.35zm-3.56-2.13a1 1 0 10-2 0v2h2z"
    fill="#fff" />
</svg>