<svg xmlns="http://www.w3.org/2000/svg" viewBox="0 0 18 18" width="21" height="21">
  <circle fill="#828686" stroke="#FFF" stroke-width=".5" stroke-miterlimit="10" cx="9" cy="9" r="8.75" />
  <path
    d="M12.5 14a.5.5 0 01-.5.5.49.49 0 01-.43-.27l-.38-.73H6.81l-.37.74A.5.5 0 015.5 14a.49.49 0 01.07-.24l1-2A.49.49 0 017 11.5a.5.5 0 01.5.7l-.19.3h3.38l-.19-.3a.5.5 0 01.9-.43l1 2a.49.49 0 01.1.23zm-1-10.5h-5a1 1 0 00-1 1v5a1 1 0 001 1h5a1 1 0 001-1v-5a1 1 0 00-1-1zM7 9.5a.5.5 0 110-1 .5.5 0 010 1zm0-2a.5.5 0 01-.5-.5V5a.5.5 0 01.5-.5h1.79v3zm4 2a.5.5 0 110-1 .5.5 0 010 1zm.5-2.5a.5.5 0 01-.5.5H9.19v-3H11a.5.5 0 01.5.5z"
    fill="#fff" />
</svg>