<?xml version="1.0" encoding="UTF-8"?>
<svg width="14" height="14" version="1.1" viewBox="0 0 14 14" xmlns="http://www.w3.org/2000/svg">
 <g transform="matrix(-.12936 .12826 -.12936 -.12826 161.72 128.62)" fill="#444" stroke="#000" stroke-width="1.0979">
  <path transform="matrix(-3.8651 -3.8651 3.8983 -3.8983 123.66 1126.5)" d="m0 0v3h1v-2h12v2h1v-3zm3 2v12h3v-1.0488h0.00195c0.026029-0.53237 0.46504-0.95076 0.99805-0.95117 0.53301 4.05e-4 0.97202 0.4188 0.99805 0.95117h0.0019531v1.0488h3v-12h-1v6h-6v-6zm1 7 6 0.00195v3.998h-1c0-1.1046-0.89543-2-2-2s-2 0.89543-2 2h-1z" color="#000000" color-rendering="auto" dominant-baseline="auto" fill="#444" image-rendering="auto" shape-rendering="auto" solid-color="#000000" stroke="none" style="font-feature-settings:normal;font-variant-alternates:normal;font-variant-caps:normal;font-variant-ligatures:normal;font-variant-numeric:normal;font-variant-position:normal;isolation:auto;mix-blend-mode:normal;shape-padding:0;text-decoration-color:#000000;text-decoration-line:none;text-decoration-style:solid;text-indent:0;text-orientation:mixed;text-transform:none;white-space:normal"/>
 </g>
</svg>
