<?xml version="1.0" encoding="UTF-8"?>
<svg width="14" height="14" version="1.1" viewBox="0 0 14 14" xmlns="http://www.w3.org/2000/svg">
 <rect id="canvas" width="14" height="14" fill="none" visibility="hidden"/>
 <path d="m6.832 1.8984a1.2055 0.94874 0 0 0-1.2051 0.94922 1.2055 0.94874 0 0 0 0.83984 0.9043c-1.3778 0.111-2.5677 0.81921-3.2656 1.8652-0.014037-0.00629-0.026946-0.019665-0.041016-0.025391-0.6488-0.26404-1.622-0.39657-2.252 0.011719-0.61339 0.39758-0.87117 1.1089-0.90625 1.9961-0.07125 1.803 1.2801 2.1643 2.627 2.3457 0.1091 0.014698 0.2167 0.00673 0.32422 0.00195 0.29579 0.85379 0.73717 1.6557 1.3066 2.0566h5.1465c0.61296-0.4323 1.0763-1.3294 1.3691-2.2559 0.23393 0.046863 0.48724 0.00182 0.83789-0.27734 0.60916-0.48495 1.2457-1.4463 1.4531-1.916 0.37426-0.81137 0.93359-3.7246 0.93359-3.7246s-0.88138 0.23919-1.584-0.00391c-0.15478 0.52722-0.34697 1.5225-0.63867 1.998-0.25113 0.4094-0.41959 0.76493-0.83398 0.83008-0.48121-1.5847-1.951-2.7578-3.748-2.9023a1.2055 0.94874 0 0 0 0.8418-0.9043 1.2055 0.94874 0 0 0-1.2051-0.94922zm-4.8535 4.25c0.32288-0.010044 0.59201 0.092301 0.83398 0.23047-0.16831 0.43356-0.27547 0.89628-0.27539 1.3848 6.456e-4 0.39149 0.066256 0.87246 0.18164 1.3711-0.77407-0.01316-1.6862-0.11158-1.6328-1.4629 0.0298-0.7536 0.23264-1.4086 0.60742-1.4883 0.099248-0.021098 0.19374-0.032313 0.28516-0.035156z" fill="#444"/>
</svg>
