<?xml version="1.0" encoding="UTF-8"?>
<svg width="11" height="11" version="1.1" viewBox="0 0 11 11" xmlns="http://www.w3.org/2000/svg">
 <path id="toilets" d="m4.9107 0v11h1.1786v-11zm-2.9464 0.78571c-0.65091 0-1.1786 0.52766-1.1786 1.1786s0.52766 1.1786 1.1786 1.1786 1.1786-0.52766 1.1786-1.1786-0.52766-1.1786-1.1786-1.1786zm7.0714 0c-0.65091 0-1.1786 0.52766-1.1786 1.1786s0.52766 1.1786 1.1786 1.1786 1.1786-0.52766 1.1786-1.1786-0.52766-1.1786-1.1786-1.1786zm-7.8571 3.1429c-0.47121 0-0.78571 0.44671-0.78571 0.78571 0 0.41433 0.98214 1.1759 0.98214 1.5714 0 0.43684-1.375 0.78571-1.375 2.3571h1.375v2.3571h1.1786v-2.3571h1.375c0-1.5714-1.375-1.9411-1.375-2.3571 0-0.41604 0.98214-1.1383 0.98214-1.5714 0-0.32017-0.33371-0.78571-0.78571-0.78571zm6.6786 0c-0.41433 0-0.78571 0.37751-0.78571 0.78571 0 0.78571 1.375 3.1555 1.375 3.9286v2.3571h1.1786v-2.3571c0-0.75779 1.375-3.1429 1.375-3.9286 0-0.4348-0.35255-0.78571-0.78571-0.78571z" fill="#444" stroke-width=".78571"/>
</svg>
